<svg width="100" height="100" viewBox="0 0 100 100" fill="none"
  xmlns="http://www.w3.org/2000/svg">
  <g clip-path="url(#clip0_2_45)">
    <path d="M28.4583 74.75H70.5417V66.3333H28.4583V74.75Z" fill="black"/>
    <path d="M70.5417 57.9167H28.4583V49.5H70.5417V57.9167Z" fill="black"/>
    <path d="M28.4583 41.0833H45.2917V32.6667H28.4583V41.0833Z" fill="black"/>
    <path fill-rule="evenodd" clip-rule="evenodd" d="M24.25 7.41667C17.2774 7.41667 11.625 13.0691 11.625 20.0417V78.9583C11.625 85.9311 17.2774 91.5833 24.25 91.5833H74.75C81.7228 91.5833 87.375 85.9311 87.375 78.9583V36.875C87.375 20.6056 74.1861 7.41667 57.9167 7.41667H24.25ZM24.25 15.8333H53.7083V36.875H78.9583V78.9583C78.9583 81.2826 77.0743 83.1667 74.75 83.1667H24.25C21.9258 83.1667 20.0417 81.2826 20.0417 78.9583V20.0417C20.0417 17.7175 21.9258 15.8333 24.25 15.8333ZM62.125 16.2543C68.9059 17.6307 74.503 22.2681 77.2077 28.4583H62.125V16.2543Z" fill="black"/>
    <circle cx="80" cy="79" r="16" fill="black"/>
    <path d="M84.2428 79.0388L86.3641 81.1603L80 87.5242L73.6361 81.1603L75.7574 79.0388L78.5 81.7816V70.4759H81.5V81.7816L84.2428 79.0388Z" fill="white"/>
  </g>
  <defs>
    <clipPath id="clip0_2_45">
      <rect width="100" height="100" fill="white"/>
    </clipPath>
  </defs>
</svg>
